<?xml version="1.0" encoding="UTF-8"?>
<svg width="21px" height="20px" viewBox="0 0 21 20" version="1.1" xmlns="http://www.w3.org/2000/svg" xmlns:xlink="http://www.w3.org/1999/xlink">
    <title>logo-icon</title>
    <g id="Page-1" stroke="none" stroke-width="1" fill="none" fill-rule="evenodd">
        <g id="logo-icon" fill-rule="nonzero">
            <polygon id="Path" fill="#E95420" points="20.5 0 0.5 0 0.5 20 20.5 20"></polygon>
            <path d="M16.39,13.5901 L10.08,13.5901 C10.08,13.5901 10.04,13.5901 10.03,13.6101 C10.02,13.6201 10.01,13.6401 10.01,13.6601 L10.01,14.6901 C10.01,14.6901 10.05,14.7601 10.09,14.7601 L15.18,14.7601 L15.18,15.8201 L8.97002,15.8201 L8.97002,2.9001 C8.97002,2.9001 8.94002,2.8301 8.90002,2.8301 L5.59002,2.8301 C5.59002,2.8301 5.52002,2.8601 5.52002,2.9001 L5.52002,16.9201 C5.52002,16.9201 5.55002,16.9901 5.59002,16.9901 L6.66002,16.9901 C6.66002,16.9901 6.70002,16.9901 6.71002,16.9701 C6.72002,16.9501 6.73002,16.9401 6.73002,16.9201 L6.73002,3.9401 L7.81002,3.9401 L7.77002,16.8501 C7.77002,16.8501 7.77002,16.8901 7.79002,16.9001 C7.80002,16.9101 7.82002,16.9201 7.84002,16.9201 L16.39,16.9201 C16.39,16.9201 16.46,16.8901 16.46,16.8501 L16.46,13.6601 C16.46,13.6601 16.43,13.5901 16.39,13.5901 Z" id="Path" fill="#FFFFFF"></path>
        </g>
    </g>
</svg>