<svg width="175" height="56" viewBox="0 0 175 56" fill="none" xmlns="http://www.w3.org/2000/svg">
<g clip-path="url(#clip0_316_10103)">
<path d="M49.685 47.8129V49.624H37.5801V28.3329H39.6649V47.8129H49.685Z" fill="#fff"/>
<path d="M57.9466 33.3755C58.989 33.3755 59.8751 33.5188 60.6048 33.8185C61.3345 34.1182 61.9208 34.5221 62.3769 35.0433C62.8329 35.5645 63.1587 36.19 63.3541 36.9066C63.5626 37.6233 63.6668 38.4051 63.6668 39.239V49.2592C63.4584 49.3243 63.1587 49.3895 62.7808 49.4546C62.3899 49.5328 61.9469 49.5979 61.4257 49.6892C60.9175 49.7673 60.3442 49.8325 59.7187 49.8846C59.0933 49.9367 58.4548 49.9628 57.8033 49.9628C56.9694 49.9628 56.1876 49.8716 55.4839 49.6892C54.7803 49.5067 54.1679 49.207 53.6337 48.8161C53.1125 48.4122 52.6955 47.904 52.4088 47.2786C52.1092 46.6531 51.9658 45.8844 51.9658 44.9853C51.9658 44.1253 52.1352 43.3826 52.461 42.7702C52.7867 42.1578 53.2558 41.6496 53.8422 41.2457C54.4415 40.8417 55.1452 40.5551 55.9661 40.3726C56.787 40.1902 57.673 40.099 58.6372 40.099C58.9239 40.099 59.2236 40.112 59.5493 40.1511C59.8621 40.1772 60.1748 40.2293 60.4745 40.2684C60.7742 40.3205 61.0217 40.3726 61.2432 40.4248C61.4648 40.4769 61.6081 40.516 61.6863 40.5681V39.5908C61.6863 39.0436 61.6472 38.4963 61.569 37.9751C61.4908 37.4539 61.3084 36.9848 61.0348 36.5548C60.7611 36.1379 60.3702 35.7991 59.8621 35.5385C59.3539 35.2779 58.7024 35.1606 57.8815 35.1606C56.7088 35.1606 55.8488 35.2388 55.2755 35.4082C54.7021 35.5776 54.2852 35.7079 54.0115 35.8121L53.7379 34.0661C54.0897 33.8967 54.624 33.7534 55.3536 33.61C56.0442 33.4406 56.9303 33.3755 57.9466 33.3755ZM58.1291 48.1907C58.9109 48.1907 59.5884 48.1646 60.1748 48.1125C60.7611 48.0604 61.2563 47.9952 61.6602 47.9171V42.3272C61.4387 42.2229 61.0739 42.1187 60.5787 42.0014C60.0836 41.8841 59.406 41.832 58.546 41.832C58.0509 41.832 57.5427 41.8711 57.0085 41.9363C56.4742 42.0144 55.9791 42.1578 55.5361 42.3923C55.08 42.6268 54.7152 42.9526 54.4285 43.3565C54.1418 43.7605 53.9985 44.3077 53.9985 44.9853C53.9985 45.5847 54.0897 46.0798 54.2852 46.4968C54.4806 46.9007 54.7543 47.2395 55.1191 47.474C55.4709 47.7216 55.9139 47.904 56.4091 48.0083C56.9303 48.1255 57.5036 48.1907 58.1291 48.1907Z" fill="#fff"/>
<path d="M68.2923 34.2876C68.8917 34.1182 69.6865 33.9358 70.6899 33.7403C71.6932 33.5319 72.918 33.4276 74.3774 33.4276C75.5892 33.4276 76.5925 33.597 77.4004 33.9488C78.2082 34.3006 78.8597 34.7958 79.3418 35.4342C79.824 36.0857 80.1627 36.8545 80.3712 37.7536C80.5797 38.6527 80.6839 39.643 80.6839 40.7375V49.624H78.6903V41.389C78.6903 40.2684 78.6122 39.3042 78.4558 38.5354C78.2994 37.7536 78.0519 37.1282 77.687 36.633C77.3222 36.1379 76.8531 35.7861 76.2667 35.5776C75.6804 35.3561 74.9507 35.2518 74.0647 35.2518C73.1265 35.2518 72.3056 35.3039 71.615 35.4082C70.9244 35.5124 70.4814 35.6036 70.2729 35.6818V49.637H68.2793L68.2923 34.2876Z" fill="#fff"/>
<path d="M98.0009 49.1419C97.4015 49.3504 96.6457 49.5458 95.7206 49.7282C94.7955 49.9107 93.6358 50.0019 92.2155 50.0019C91.0428 50.0019 89.9874 49.8064 89.0362 49.4285C88.085 49.0507 87.2641 48.5034 86.5735 47.7867C85.8829 47.0701 85.3487 46.1971 84.9708 45.1807C84.5929 44.1514 84.3975 43.0047 84.3975 41.7017C84.3975 40.4899 84.5538 39.3823 84.8796 38.366C85.1923 37.3496 85.6614 36.4766 86.2738 35.7339C86.8862 34.9912 87.642 34.4179 88.528 34.0139C89.414 33.61 90.4434 33.4015 91.5901 33.4015C92.6325 33.4015 93.5446 33.5449 94.3134 33.8446C95.0821 34.1442 95.6424 34.4179 95.9942 34.6915V26.1438L97.9878 25.7789V49.1419H98.0009ZM96.0073 36.633C95.8248 36.4897 95.5903 36.3333 95.3167 36.1769C95.043 36.0076 94.7173 35.8642 94.3524 35.7209C93.9876 35.5776 93.5837 35.4603 93.1537 35.3691C92.7237 35.2779 92.2676 35.2257 91.7985 35.2257C90.8213 35.2257 89.9874 35.3951 89.3228 35.7469C88.6583 36.0988 88.1241 36.5548 87.7071 37.1412C87.3032 37.7275 87.0035 38.4181 86.8211 39.1999C86.6386 39.9948 86.5474 40.8287 86.5474 41.7017C86.5474 43.7865 87.0686 45.3892 88.111 46.5098C89.1534 47.6304 90.5346 48.1907 92.2546 48.1907C93.2319 48.1907 94.0267 48.1386 94.6391 48.0473C95.2385 47.9561 95.6945 47.8519 96.0073 47.7607V36.633Z" fill="#fff"/>
<path d="M106.013 48.2168C107.16 48.2168 108.111 48.0213 108.854 47.6434C109.597 47.2656 109.975 46.6271 109.975 45.728C109.975 45.298 109.909 44.9332 109.779 44.6205C109.649 44.3077 109.427 44.0341 109.115 43.7865C108.802 43.539 108.398 43.3044 107.903 43.0829C107.395 42.8614 106.782 42.5878 106.039 42.2881C105.44 42.0405 104.88 41.7929 104.346 41.5323C103.811 41.2717 103.342 40.9851 102.938 40.6463C102.534 40.3075 102.196 39.9036 101.961 39.4345C101.713 38.9654 101.596 38.3921 101.596 37.7145C101.596 36.4245 102.078 35.3821 103.056 34.5743C104.033 33.7794 105.362 33.3755 107.069 33.3755C108.15 33.3755 109.049 33.4667 109.753 33.6491C110.457 33.8315 110.952 34.0009 111.238 34.1443L110.782 35.9294C110.535 35.8121 110.118 35.6427 109.532 35.4342C108.945 35.2258 108.098 35.1215 106.965 35.1215C106.509 35.1215 106.092 35.1736 105.688 35.2649C105.284 35.3561 104.932 35.4994 104.632 35.6948C104.333 35.8903 104.085 36.1379 103.889 36.4376C103.707 36.7373 103.616 37.1021 103.616 37.5321C103.616 37.9621 103.694 38.3269 103.863 38.6396C104.033 38.9524 104.267 39.226 104.58 39.4605C104.893 39.6951 105.284 39.9166 105.753 40.1251C106.209 40.3336 106.743 40.5551 107.329 40.8026C107.942 41.0502 108.528 41.2978 109.102 41.5584C109.662 41.819 110.157 42.1187 110.587 42.4835C111.017 42.8484 111.369 43.2784 111.629 43.7735C111.89 44.2817 112.033 44.9071 112.033 45.6629C112.033 47.0962 111.499 48.1777 110.418 48.9204C109.336 49.6631 107.877 50.0279 106.013 50.0279C104.619 50.0279 103.551 49.9107 102.821 49.6761C102.091 49.4416 101.596 49.2592 101.349 49.1419L101.87 47.3307C101.935 47.3698 102.065 47.435 102.274 47.5262C102.482 47.6174 102.756 47.7216 103.108 47.8389C103.46 47.9562 103.876 48.0474 104.359 48.1255C104.815 48.1777 105.375 48.2168 106.013 48.2168Z" fill="#fff"/>
<path d="M122.25 49.9628C121.025 49.9628 119.931 49.7673 118.993 49.3764C118.054 48.9855 117.273 48.4252 116.647 47.6955C116.022 46.9658 115.54 46.0928 115.214 45.0895C114.888 44.0732 114.719 42.9526 114.719 41.7277C114.719 40.4769 114.888 39.3432 115.227 38.3139C115.566 37.2845 116.048 36.4115 116.686 35.6688C117.325 34.926 118.094 34.3657 118.993 33.9618C119.892 33.5579 120.908 33.3624 122.042 33.3624C122.902 33.3624 123.71 33.4406 124.452 33.5839C125.195 33.7273 125.781 33.9097 126.185 34.1312L125.664 35.8512C125.26 35.6427 124.791 35.4863 124.283 35.356C123.775 35.2388 123.084 35.1736 122.224 35.1736C120.465 35.1736 119.123 35.7469 118.211 36.8806C117.299 38.0142 116.843 39.6299 116.843 41.7147C116.843 42.6529 116.947 43.5259 117.155 44.3077C117.364 45.1025 117.69 45.7671 118.159 46.3404C118.615 46.9007 119.214 47.3437 119.944 47.6564C120.673 47.9692 121.56 48.1385 122.602 48.1385C123.462 48.1385 124.179 48.0473 124.765 47.8519C125.351 47.6564 125.768 47.487 126.042 47.3437L126.472 49.0637C126.107 49.2722 125.521 49.4676 124.739 49.6631C123.944 49.8715 123.11 49.9628 122.25 49.9628Z" fill="#fff"/>
<path d="M134.588 33.3755C135.631 33.3755 136.517 33.5188 137.246 33.8185C137.976 34.1182 138.562 34.5221 139.018 35.0433C139.475 35.5645 139.8 36.19 139.996 36.9066C140.204 37.6233 140.308 38.4051 140.308 39.239V49.2592C140.1 49.3243 139.8 49.3895 139.422 49.4546C139.031 49.5328 138.575 49.5979 138.067 49.6892C137.559 49.7673 136.986 49.8325 136.36 49.8846C135.735 49.9367 135.096 49.9628 134.445 49.9628C133.598 49.9628 132.829 49.8716 132.126 49.6892C131.422 49.5067 130.81 49.207 130.275 48.8161C129.754 48.4122 129.337 47.904 129.05 47.2786C128.751 46.6531 128.607 45.8844 128.607 44.9853C128.607 44.1253 128.777 43.3826 129.103 42.7702C129.428 42.1578 129.897 41.6496 130.484 41.2457C131.083 40.8417 131.787 40.5551 132.608 40.3726C133.429 40.1902 134.315 40.099 135.279 40.099C135.565 40.099 135.865 40.112 136.191 40.1511C136.504 40.1772 136.816 40.2293 137.116 40.2684C137.416 40.3205 137.663 40.3726 137.885 40.4248C138.106 40.4769 138.25 40.516 138.328 40.5681V39.5908C138.328 39.0436 138.289 38.4963 138.211 37.9751C138.132 37.4539 137.95 36.9848 137.676 36.5548C137.403 36.1379 137.012 35.7991 136.504 35.5385C135.995 35.2779 135.344 35.1606 134.523 35.1606C133.35 35.1606 132.49 35.2388 131.917 35.4082C131.344 35.5776 130.927 35.7079 130.653 35.8121L130.38 34.0661C130.731 33.8967 131.266 33.7534 131.995 33.61C132.699 33.4406 133.572 33.3755 134.588 33.3755ZM134.784 48.1907C135.565 48.1907 136.243 48.1646 136.829 48.1125C137.416 48.0604 137.911 47.9952 138.315 47.9171V42.3272C138.093 42.2229 137.728 42.1187 137.233 42.0014C136.738 41.8841 136.061 41.832 135.201 41.832C134.705 41.832 134.197 41.8711 133.663 41.9363C133.129 42.0144 132.634 42.1578 132.191 42.3923C131.735 42.6268 131.37 42.9526 131.083 43.3565C130.796 43.7605 130.653 44.3077 130.653 44.9853C130.653 45.5847 130.744 46.0798 130.94 46.4968C131.135 46.9007 131.409 47.2395 131.774 47.474C132.126 47.7216 132.569 47.904 133.064 48.0083C133.572 48.1255 134.145 48.1907 134.784 48.1907Z" fill="#fff"/>
<path d="M146.942 55.3182H144.948V34.2876C145.548 34.0791 146.303 33.8837 147.229 33.7012C148.154 33.5188 149.313 33.4276 150.734 33.4276C151.906 33.4276 152.962 33.6231 153.913 34.0009C154.864 34.3788 155.685 34.9261 156.376 35.6427C157.066 36.3594 157.6 37.2324 157.978 38.2487C158.356 39.2781 158.552 40.4248 158.552 41.7278C158.552 42.9396 158.395 44.0471 158.07 45.0635C157.757 46.0798 157.288 46.9528 156.675 47.6695C156.063 48.3992 155.307 48.9595 154.421 49.3764C153.535 49.7804 152.506 49.9889 151.359 49.9889C150.317 49.9889 149.405 49.8455 148.636 49.5458C147.867 49.2461 147.307 48.9725 146.955 48.6989V55.3182H146.942ZM146.942 46.7704C147.124 46.9138 147.359 47.0701 147.632 47.2265C147.906 47.3959 148.232 47.5392 148.597 47.6825C148.962 47.8259 149.365 47.9431 149.795 48.0343C150.225 48.1256 150.681 48.1777 151.151 48.1777C152.128 48.1777 152.962 48.0083 153.626 47.6695C154.291 47.3307 154.825 46.8747 155.242 46.2883C155.646 45.702 155.946 45.0244 156.128 44.2296C156.31 43.4347 156.402 42.6008 156.402 41.7278C156.402 39.643 155.88 38.0403 154.838 36.9197C153.796 35.7991 152.414 35.2388 150.695 35.2388C149.717 35.2388 148.922 35.2909 148.31 35.3821C147.711 35.4733 147.255 35.5776 146.942 35.6688V46.7704Z" fill="#fff"/>
<path d="M161.574 41.6626C161.574 40.2684 161.77 39.0566 162.174 38.0142C162.578 36.9848 163.099 36.1118 163.737 35.4212C164.389 34.7306 165.118 34.2094 165.952 33.8706C166.786 33.5318 167.633 33.3624 168.519 33.3624C170.461 33.3624 172.011 34.0009 173.171 35.2648C174.331 36.5418 174.904 38.4963 174.904 41.1414C174.904 41.3108 174.904 41.4671 174.891 41.6365C174.878 41.8059 174.865 41.9493 174.839 42.0926H163.685C163.75 44.0341 164.232 45.5325 165.131 46.5749C166.031 47.6173 167.464 48.1385 169.431 48.1385C170.513 48.1385 171.373 48.0343 172.011 47.8258C172.65 47.6173 173.106 47.448 173.393 47.3046L173.757 49.0246C173.471 49.194 172.936 49.3894 172.142 49.6109C171.347 49.8325 170.422 49.9497 169.366 49.9497C167.972 49.9497 166.786 49.7412 165.796 49.3373C164.806 48.9334 163.998 48.3601 163.372 47.6173C162.734 46.8746 162.278 46.0016 161.991 44.9853C161.718 43.995 161.574 42.8744 161.574 41.6626ZM172.845 40.4117C172.806 38.7569 172.415 37.4669 171.673 36.5418C170.93 35.6166 169.887 35.1606 168.532 35.1606C167.816 35.1606 167.177 35.3039 166.617 35.5906C166.057 35.8772 165.561 36.2681 165.144 36.7372C164.728 37.2193 164.402 37.7796 164.167 38.4181C163.933 39.0566 163.789 39.7211 163.75 40.4117H172.845Z" fill="#fff"/>
<path d="M30.4262 0.318237H0.000976562V53.7546H30.4262V0.318237Z" fill="#E9500E"/>
<path d="M23.0382 43.617H13.9041C13.878 43.617 13.852 43.63 13.839 43.6431C13.8259 43.6561 13.8129 43.6822 13.8129 43.7082L13.8259 45.1936C13.8259 45.2458 13.865 45.2849 13.9302 45.2849H21.3052V46.8354H12.3144V28.1112C12.3144 28.0591 12.2753 28.007 12.2102 28.007H7.40209C7.34997 28.007 7.29785 28.046 7.29785 28.1112V48.4121C7.29785 48.4642 7.33694 48.5163 7.40209 48.5163H8.95267C8.97873 48.5163 9.00479 48.5033 9.01782 48.4903C9.03085 48.4772 9.04388 48.4512 9.04388 48.4251V29.6357L10.6336 29.6227L10.5814 48.3469C10.5814 48.373 10.5945 48.399 10.6075 48.4121C10.6205 48.4251 10.6466 48.4381 10.6726 48.4381H23.0382C23.0903 48.4381 23.1424 48.399 23.1424 48.3339V43.7082C23.1294 43.6561 23.0903 43.617 23.0382 43.617Z" fill="white"/>
</g>
<defs>
<clipPath id="clip0_316_10103">
<rect width="174.903" height="55" fill="white" transform="translate(0 0.318115)"/>
</clipPath>
</defs>
</svg>
